<svg width="341" height="386" viewBox="0 0 341 386" fill="none" xmlns="http://www.w3.org/2000/svg">
<path d="M169.827 0.316406L340.419 384.555H0.984497L169.827 0.316406Z" fill="#6C9F9C"/>
<path d="M95.0913 234.272L101.657 254.48H122.904L105.715 266.969L112.281 287.176L95.0913 274.687L77.9019 287.176L84.4677 266.969L67.2783 254.48H88.5256L95.0913 234.272Z" fill="#F6BD60"/>
<path d="M220.734 179.033L227.299 199.24H248.547L231.357 211.729L237.923 231.936L220.734 219.448L203.544 231.936L210.11 211.729L192.92 199.24H214.168L220.734 179.033Z" fill="#F6BD60"/>
<path d="M169.827 62.0554L176.393 82.2628H197.64L180.451 94.7517L187.016 114.959L169.827 102.47L152.637 114.959L159.203 94.7517L142.014 82.2628H163.261L169.827 62.0554Z" fill="#F6BD60"/>
<path d="M140.583 144.373L147.148 164.58H168.396L151.206 177.069L157.772 197.276L140.583 184.788L123.393 197.276L129.959 177.069L112.769 164.58H134.017L140.583 144.373Z" fill="#F6BD60"/>
<path d="M279.222 306.842L285.788 327.049H307.035L289.846 339.538L296.411 359.745L279.222 347.257L262.033 359.745L268.598 339.538L251.409 327.049H272.656L279.222 306.842Z" fill="#F6BD60"/>
<path d="M166.577 205.027L333.379 384.284L0.548828 385.367L166.577 205.027Z" fill="white"/>
<path d="M176.326 236.979C176.326 242.662 171.719 247.269 166.036 247.269C160.353 247.269 155.746 242.662 155.746 236.979C155.746 231.296 160.353 226.689 166.036 226.689C171.719 226.689 176.326 231.296 176.326 236.979Z" fill="#6C9F9C"/>
</svg>
